<svg width="16441" height="3437" viewBox="0 0 16441 3437" fill="none" xmlns="http://www.w3.org/2000/svg">
<path d="M1490 0H1965V1369H1490V0Z" fill="#083625"/>
<path d="M1490 2020H1965V3437H1490V2020Z" fill="#083625"/>
<path d="M957 838.536L1378 607V3437H957V838.536Z" fill="#083625"/>
<path d="M458 1119.68L845 911V3436H458V1119.68Z" fill="#083625"/>
<path d="M0 1375.56L346 1169V3436H0V1375.56Z" fill="#083625"/>
<path d="M1379.3 0L1379.3 498.499L4.21983 1257.01L4.20589 764.999L1379.3 0Z" fill="#083625"/>
<path d="M3521 0V475H1490V0H3521Z" fill="#083625"/>
<path d="M3309 1457V1932H1490V1457H3309Z" fill="#083625"/>
<path d="M6609.7 1427.16C6609.7 1482.5 6610.35 1531.01 6611.66 1572.67C6613.61 1613.69 6615.56 1649.17 6617.52 1679.12C6620.12 1709.07 6623.05 1734.13 6626.3 1754.31C6630.21 1774.49 6634.12 1791.42 6638.02 1805.09V1809H6403.65V1805.09C6407.55 1791.42 6411.14 1774.49 6414.39 1754.31C6418.3 1734.13 6421.55 1709.07 6424.16 1679.12C6426.76 1649.17 6428.71 1613.69 6430.02 1572.67C6431.32 1531.01 6431.97 1482.5 6431.97 1427.16V791.422C6431.97 736.083 6431.32 687.906 6430.02 646.891C6428.71 605.224 6426.76 569.417 6424.16 539.469C6421.55 508.87 6418.3 483.479 6414.39 463.297C6411.14 443.115 6407.55 426.188 6403.65 412.516V408.609C6457.68 408.609 6512.37 408.609 6567.71 408.609C6623.05 407.958 6676.76 407.633 6728.84 407.633C6780.93 406.982 6830.41 406.331 6877.28 405.68C6924.16 404.378 6966.47 403.401 7004.23 402.75C7041.99 401.448 7073.9 400.146 7099.94 398.844C7125.98 396.891 7144.53 394.938 7155.6 392.984L7107.75 522.867C7086.27 517.008 7061.2 511.799 7032.55 507.242C7007.82 503.336 6977.54 499.755 6941.73 496.5C6906.58 492.594 6865.89 490.641 6819.66 490.641C6804.04 490.641 6784.51 491.292 6761.07 492.594C6737.63 493.245 6714.52 494.221 6691.73 495.523C6665.69 496.826 6638.35 498.128 6609.7 499.43V992.594C6676.76 991.943 6738.28 989.99 6794.27 986.734C6850.26 983.479 6898.44 980.224 6938.8 976.969C6985.68 973.062 7028 968.505 7065.76 963.297L7036.46 1104.9C6987.63 1099.04 6938.15 1093.51 6888.02 1088.3C6845.05 1083.74 6798.83 1079.83 6749.35 1076.58C6699.87 1072.67 6653.32 1070.72 6609.7 1070.72V1427.16ZM7973.96 385.172C8082.68 385.172 8182.95 403.076 8274.74 438.883C8367.19 474.039 8446.94 523.844 8514 588.297C8581.06 652.099 8633.47 728.922 8671.23 818.766C8708.99 908.609 8727.87 1007.89 8727.87 1116.62C8727.87 1178.47 8720.71 1239.34 8706.38 1299.23C8692.06 1359.13 8670.9 1415.77 8642.91 1469.16C8615.56 1522.54 8581.71 1572.02 8541.34 1617.59C8500.98 1662.52 8454.76 1701.58 8402.67 1734.78C8351.24 1767.33 8294.27 1792.72 8231.77 1810.95C8169.27 1829.83 8101.89 1839.27 8029.62 1839.27C7920.9 1839.27 7820.32 1822.02 7727.87 1787.52C7636.07 1752.36 7556.64 1702.88 7489.59 1639.08C7422.53 1575.28 7370.12 1498.78 7332.36 1409.59C7294.6 1319.74 7275.72 1220.13 7275.72 1110.76C7275.72 1048.91 7282.88 988.036 7297.2 928.141C7311.53 868.245 7332.36 811.279 7359.7 757.242C7387.7 703.206 7421.55 653.727 7461.27 608.805C7501.63 563.232 7547.53 523.844 7598.96 490.641C7651.04 457.438 7708.34 431.721 7770.84 413.492C7833.99 394.612 7901.7 385.172 7973.96 385.172ZM8029.62 1751.38C8101.89 1751.38 8167.97 1738.36 8227.87 1712.32C8287.76 1686.28 8339.2 1648.52 8382.16 1599.04C8425.78 1549.56 8459.64 1489.34 8483.73 1418.38C8507.82 1346.76 8519.86 1265.71 8519.86 1175.21C8519.86 1074.95 8508.14 982.177 8484.7 896.891C8461.92 810.953 8427.74 736.734 8382.16 674.234C8336.59 611.083 8279.62 561.93 8211.27 526.773C8143.56 490.966 8064.46 473.062 7973.96 473.062C7901.7 473.062 7835.61 486.083 7775.72 512.125C7715.82 537.516 7664.07 574.625 7620.45 623.453C7577.48 672.281 7543.95 732.177 7519.86 803.141C7495.77 874.104 7483.73 954.833 7483.73 1045.33C7483.73 1144.94 7495.12 1238.04 7517.91 1324.62C7540.69 1410.56 7574.87 1485.11 7620.45 1548.26C7666.02 1611.41 7722.98 1661.21 7791.34 1697.67C7859.7 1733.48 7939.13 1751.38 8029.62 1751.38ZM9431.97 1196.7L9086.27 1635.17C9073.24 1650.8 9060.55 1667.07 9048.18 1684C9035.81 1700.28 9024.74 1716.23 9014.98 1731.85C9005.21 1747.48 8997.07 1762.12 8990.56 1775.8C8984.7 1788.82 8981.77 1799.89 8981.77 1809H8792.32V1805.09C8806.64 1792.72 8826.83 1773.84 8852.87 1748.45C8879.56 1723.06 8907.88 1691.16 8937.83 1652.75L9367.52 1112.71L8926.11 532.633C8902.02 501.383 8878.26 475.341 8854.82 454.508C8831.38 433.023 8813.8 419.026 8802.09 412.516V408.609H9107.75C9107.75 416.422 9108.73 426.513 9110.68 438.883C9113.28 451.253 9117.84 465.901 9124.35 482.828C9130.86 499.104 9139.65 517.333 9150.72 537.516C9162.44 557.698 9177.41 579.508 9195.64 602.945L9477.87 973.062L9789.39 583.414C9801.11 569.091 9812.5 553.466 9823.57 536.539C9835.29 519.612 9845.38 503.336 9853.84 487.711C9862.96 471.435 9870.12 456.461 9875.33 442.789C9881.19 429.117 9884.12 417.724 9884.12 408.609H10073.6V412.516C10067.1 417.724 10059.9 423.909 10052.1 431.07C10044.3 438.232 10035.2 447.021 10024.7 457.438C10015 467.854 10003.9 480.224 9991.54 494.547C9979.17 508.87 9965.17 525.797 9949.55 545.328L9542.32 1059L9997.4 1654.7C10028.6 1695.07 10057.6 1728.6 10084.3 1755.29C10111.7 1781.33 10131.5 1797.93 10143.9 1805.09V1809H9840.17C9840.17 1794.03 9833.99 1769.29 9821.62 1734.78C9809.25 1700.28 9786.14 1660.24 9752.28 1614.66L9431.97 1196.7ZM11438.8 623.453L11430 627.359C11379.2 580.484 11318 543.049 11246.4 515.055C11175.5 487.06 11097.3 473.062 11012 473.062C10930 473.062 10854.8 486.083 10786.5 512.125C10718.1 537.516 10659.2 574.625 10609.7 623.453C10560.9 672.281 10522.8 732.177 10495.4 803.141C10468.1 874.104 10454.4 954.833 10454.4 1045.33C10454.4 1144.94 10467.5 1238.04 10493.5 1324.62C10519.5 1410.56 10558.3 1485.11 10609.7 1548.26C10661.1 1611.41 10725.3 1661.21 10802.1 1697.67C10879.6 1733.48 10969.7 1751.38 11072.6 1751.38C11109.7 1751.38 11146.8 1747.48 11183.9 1739.66C11221 1731.85 11256.5 1720.46 11290.4 1705.48C11324.9 1689.86 11357.1 1671.3 11387 1649.82C11417.6 1627.68 11445.3 1602.62 11470.1 1574.62L11480.8 1581.46L11402.7 1780.68C11353.8 1799.56 11299.8 1813.88 11240.6 1823.65C11182 1834.07 11122.7 1839.27 11062.8 1839.27C10942.4 1839.27 10832 1822.02 10731.8 1787.52C10632.2 1752.36 10546.2 1702.88 10474 1639.08C10402.3 1575.28 10346.4 1498.78 10306 1409.59C10266.3 1319.74 10246.4 1220.13 10246.4 1110.76C10246.4 1048.91 10254.2 988.036 10269.9 928.141C10286.1 868.245 10309.6 811.279 10340.2 757.242C10370.8 703.206 10408.5 653.727 10453.5 608.805C10498.4 563.232 10549.5 523.844 10606.8 490.641C10664.7 457.438 10728.2 431.721 10797.2 413.492C10866.9 394.612 10942.1 385.172 11022.8 385.172C11148.4 385.172 11265 404.378 11372.4 442.789L11438.8 623.453ZM11865.6 1427.16C11865.6 1482.5 11866.2 1531.01 11867.5 1572.67C11869.5 1613.69 11871.4 1649.17 11873.4 1679.12C11876 1709.07 11878.9 1734.13 11882.2 1754.31C11886.1 1774.49 11890 1791.42 11893.9 1805.09V1809H11659.5V1805.09C11663.4 1791.42 11667 1774.49 11670.2 1754.31C11674.2 1734.13 11677.1 1709.07 11679 1679.12C11681.6 1649.17 11683.6 1613.69 11684.9 1572.67C11686.9 1531.66 11687.8 1483.15 11687.8 1427.16V791.422C11687.8 736.083 11686.9 687.906 11684.9 646.891C11683.6 605.224 11681.6 569.417 11679 539.469C11677.1 509.521 11674.2 484.456 11670.2 464.273C11667 443.44 11663.4 426.188 11659.5 412.516V408.609L11700.5 412.516C11712.9 413.818 11726.6 414.794 11741.5 415.445C11757.2 415.445 11773.1 415.445 11789.4 415.445C11814.8 415.445 11849 412.516 11891.9 406.656C11935.5 400.146 11990.9 396.891 12057.9 396.891C12120.4 396.891 12178.1 405.354 12230.8 422.281C12284.2 439.208 12330.4 463.948 12369.5 496.5C12408.5 529.052 12438.8 569.091 12460.3 616.617C12482.4 663.492 12493.5 716.878 12493.5 776.773C12493.5 823.648 12487.3 867.268 12474.9 907.633C12463.2 947.346 12446.3 983.479 12424.2 1016.03C12402.7 1048.58 12376.6 1077.55 12346 1102.95C12315.4 1127.68 12281.3 1148.52 12243.5 1165.45L12586.3 1646.89C12603.2 1670.98 12618.8 1691.81 12633.1 1709.39C12648.1 1726.97 12662.1 1742.27 12675.1 1755.29C12688.8 1767.66 12701.8 1778.08 12714.2 1786.54C12726.6 1794.35 12739.3 1800.54 12752.3 1805.09V1809H12470.1C12468.1 1796.63 12461.6 1780.35 12450.5 1760.17C12440.1 1739.34 12427.7 1718.83 12413.4 1698.65L12067.7 1211.34C12052.7 1212.65 12037.8 1213.95 12022.8 1215.25C12007.8 1215.9 11992.5 1216.23 11976.9 1216.23C11958.7 1216.23 11940.1 1215.58 11921.2 1214.27C11903 1212.97 11884.4 1210.69 11865.6 1207.44V1427.16ZM11865.6 1131.27C11883.1 1135.17 11901 1138.1 11919.3 1140.05C11937.5 1141.36 11955.1 1142.01 11972 1142.01C12020.8 1142.01 12065.4 1134.85 12105.8 1120.52C12146.2 1105.55 12180.3 1083.09 12208.3 1053.14C12237 1023.19 12259.1 986.083 12274.7 941.812C12290.4 896.891 12298.2 844.482 12298.2 784.586C12298.2 735.758 12292.6 691.487 12281.6 651.773C12270.5 612.06 12253.9 578.531 12231.8 551.188C12210.3 523.193 12182.9 501.708 12149.7 486.734C12116.5 471.109 12077.8 463.297 12033.5 463.297C11988.6 463.297 11952.8 465.576 11926.1 470.133C11899.4 474.69 11879.2 479.573 11865.6 484.781V1131.27ZM13479.8 385.172C13588.5 385.172 13688.8 403.076 13780.6 438.883C13873 474.039 13952.8 523.844 14019.9 588.297C14086.9 652.099 14139.3 728.922 14177.1 818.766C14214.8 908.609 14233.7 1007.89 14233.7 1116.62C14233.7 1178.47 14226.6 1239.34 14212.2 1299.23C14197.9 1359.13 14176.8 1415.77 14148.8 1469.16C14121.4 1522.54 14087.6 1572.02 14047.2 1617.59C14006.8 1662.52 13960.6 1701.58 13908.5 1734.78C13857.1 1767.33 13800.1 1792.72 13737.6 1810.95C13675.1 1829.83 13607.8 1839.27 13535.5 1839.27C13426.8 1839.27 13326.2 1822.02 13233.7 1787.52C13141.9 1752.36 13062.5 1702.88 12995.4 1639.08C12928.4 1575.28 12876 1498.78 12838.2 1409.59C12800.5 1319.74 12781.6 1220.13 12781.6 1110.76C12781.6 1048.91 12788.7 988.036 12803.1 928.141C12817.4 868.245 12838.2 811.279 12865.6 757.242C12893.6 703.206 12927.4 653.727 12967.1 608.805C13007.5 563.232 13053.4 523.844 13104.8 490.641C13156.9 457.438 13214.2 431.721 13276.7 413.492C13339.8 394.612 13407.6 385.172 13479.8 385.172ZM13535.5 1751.38C13607.8 1751.38 13673.8 1738.36 13733.7 1712.32C13793.6 1686.28 13845.1 1648.52 13888 1599.04C13931.6 1549.56 13965.5 1489.34 13989.6 1418.38C14013.7 1346.76 14025.7 1265.71 14025.7 1175.21C14025.7 1074.95 14014 982.177 13990.6 896.891C13967.8 810.953 13933.6 736.734 13888 674.234C13842.5 611.083 13785.5 561.93 13717.1 526.773C13649.4 490.966 13570.3 473.062 13479.8 473.062C13407.6 473.062 13341.5 486.083 13281.6 512.125C13221.7 537.516 13169.9 574.625 13126.3 623.453C13083.3 672.281 13049.8 732.177 13025.7 803.141C13001.6 874.104 12989.6 954.833 12989.6 1045.33C12989.6 1144.94 13001 1238.04 13023.8 1324.62C13046.6 1410.56 13080.7 1485.11 13126.3 1548.26C13171.9 1611.41 13228.8 1661.21 13297.2 1697.67C13365.6 1733.48 13445 1751.38 13535.5 1751.38ZM14660.5 1427.16C14660.5 1482.5 14661.1 1531.01 14662.4 1572.67C14664.4 1613.69 14666.3 1649.17 14668.3 1679.12C14670.9 1709.07 14673.8 1734.13 14677.1 1754.31C14681 1774.49 14684.9 1791.42 14688.8 1805.09V1809H14454.4V1805.09C14458.3 1791.42 14461.9 1774.49 14465.2 1754.31C14469.1 1734.13 14472.3 1709.07 14474.9 1679.12C14477.5 1649.17 14479.5 1613.69 14480.8 1572.67C14482.1 1531.01 14482.8 1482.5 14482.8 1427.16V791.422C14482.8 736.083 14482.1 687.906 14480.8 646.891C14479.5 605.224 14477.5 569.417 14474.9 539.469C14472.3 508.87 14469.1 483.479 14465.2 463.297C14461.9 443.115 14458.3 426.188 14454.4 412.516V408.609C14508.5 408.609 14563.2 408.609 14618.5 408.609C14673.8 407.958 14727.5 407.633 14779.6 407.633C14831.7 406.982 14881.2 406.331 14928.1 405.68C14974.9 404.378 15017.3 403.401 15055 402.75C15092.8 401.448 15124.7 400.146 15150.7 398.844C15176.8 396.891 15195.3 394.938 15206.4 392.984L15158.5 522.867C15137 517.008 15112 511.799 15083.3 507.242C15058.6 503.336 15028.3 499.755 14992.5 496.5C14957.4 492.594 14916.7 490.641 14870.4 490.641C14854.8 490.641 14835.3 491.292 14811.9 492.594C14788.4 493.245 14765.3 494.221 14742.5 495.523C14716.5 496.826 14689.1 498.128 14660.5 499.43V992.594C14727.5 991.943 14789.1 989.99 14845.1 986.734C14901 983.479 14949.2 980.224 14989.6 976.969C15036.5 973.062 15078.8 968.505 15116.5 963.297L15087.2 1104.9C15038.4 1099.04 14988.9 1093.51 14938.8 1088.3C14895.8 1083.74 14849.6 1079.83 14800.1 1076.58C14750.7 1072.67 14704.1 1070.72 14660.5 1070.72V1427.16ZM15754.2 494.547C15677.4 494.547 15608.1 498.128 15546.2 505.289C15484.4 511.799 15431 518.961 15386.1 526.773C15334 536.539 15287.4 547.281 15246.4 559L15274.7 400.797C15282.6 401.448 15294.3 402.099 15309.9 402.75C15325.5 403.401 15342.8 404.052 15361.7 404.703C15381.2 405.354 15401.4 406.005 15422.2 406.656C15443.7 406.656 15463.9 406.982 15482.8 407.633C15501.6 407.633 15518.2 407.958 15532.6 408.609C15547.5 408.609 15558.3 408.609 15564.8 408.609H16122.4C16128.9 408.609 16139.3 408.609 16153.6 408.609C16168.6 407.958 16185.5 407.633 16204.4 407.633C16223.3 406.982 16243.2 406.656 16264 406.656C16285.5 406.005 16305.7 405.354 16324.5 404.703C16344.1 404.052 16361.7 403.401 16377.3 402.75C16392.9 402.099 16404.6 401.448 16412.4 400.797L16440.8 559C16399.1 547.281 16352.2 536.539 16300.1 526.773C16255.2 518.961 16201.8 511.799 16140 505.289C16078.1 498.128 16008.8 494.547 15932 494.547V1427.16C15932 1482.5 15932.6 1531.01 15933.9 1572.67C15935.9 1613.69 15937.8 1649.17 15939.8 1679.12C15942.4 1709.07 15945.3 1734.13 15948.6 1754.31C15952.5 1774.49 15956.4 1791.42 15960.3 1805.09V1809H15726.9V1805.09C15730.8 1791.42 15734.4 1774.49 15737.6 1754.31C15740.9 1734.13 15743.8 1709.07 15746.4 1679.12C15749 1649.17 15751 1613.69 15752.3 1572.67C15753.6 1531.01 15754.2 1482.5 15754.2 1427.16V494.547Z" fill="#083625"/>
<path d="M6402.4 2554.2H6586.4C6663.2 2554.2 6720.53 2569.93 6758.4 2601.4C6796.27 2632.33 6815.2 2677.4 6815.2 2736.6C6815.2 2796.33 6796.53 2842.73 6759.2 2875.8C6721.87 2908.87 6667.47 2925.4 6596 2925.4H6508V3111H6402.4V2554.2ZM6587.2 2833.4C6627.2 2833.4 6656.53 2826.2 6675.2 2811.8C6694.4 2797.4 6704 2773.13 6704 2739C6704 2705.93 6694.67 2682.47 6676 2668.6C6657.33 2654.73 6627.47 2647.8 6586.4 2647.8H6508V2833.4H6587.2ZM7141.73 2683.8V2787.8H7128.13C7086.53 2787.8 7052.66 2799.27 7026.53 2822.2V3111H6920.93V2786.2L6903.33 2693.4H7008.93L7019.33 2748.6C7036.93 2724.6 7052.93 2707.8 7067.33 2698.2C7081.73 2688.6 7097.73 2683.8 7115.33 2683.8H7141.73ZM7424.44 3120.6C7382.3 3120.6 7345.24 3111.8 7313.24 3094.2C7281.24 3076.07 7256.44 3050.47 7238.84 3017.4C7221.77 2984.33 7213.24 2945.93 7213.24 2902.2C7213.24 2858.47 7221.77 2820.07 7238.84 2787C7256.44 2753.93 7281.24 2728.6 7313.24 2711C7345.24 2692.87 7382.3 2683.8 7424.44 2683.8C7466.57 2683.8 7503.64 2692.87 7535.64 2711C7567.64 2728.6 7592.17 2753.93 7609.24 2787C7626.84 2820.07 7635.64 2858.47 7635.64 2902.2C7635.64 2945.93 7626.84 2984.33 7609.24 3017.4C7592.17 3050.47 7567.64 3076.07 7535.64 3094.2C7503.64 3111.8 7466.57 3120.6 7424.44 3120.6ZM7424.44 3033.4C7455.9 3033.4 7480.44 3022.2 7498.04 2999.8C7515.64 2976.87 7524.44 2944.33 7524.44 2902.2C7524.44 2859.53 7515.64 2827 7498.04 2804.6C7480.44 2782.2 7455.9 2771 7424.44 2771C7392.97 2771 7368.44 2782.2 7350.84 2804.6C7333.24 2827 7324.44 2859.53 7324.44 2902.2C7324.44 2944.33 7333.24 2976.87 7350.84 2999.8C7368.44 3022.2 7392.97 3033.4 7424.44 3033.4ZM7986.56 2684.6C8018.02 2684.6 8045.76 2693.67 8069.76 2711.8C8094.29 2729.4 8113.22 2754.47 8126.56 2787C8140.42 2819 8147.36 2856.07 8147.36 2898.2C8147.36 2939.8 8139.36 2977.67 8123.36 3011.8C8107.36 3045.4 8085.22 3072.07 8056.96 3091.8C8029.22 3111 7997.76 3120.6 7962.56 3120.6C7919.89 3120.6 7882.02 3111.8 7848.96 3094.2V3296.6H7743.36V2786.2L7725.76 2693.4H7822.56L7839.36 2752.6C7858.56 2730.73 7880.96 2713.93 7906.56 2702.2C7932.16 2690.47 7958.82 2684.6 7986.56 2684.6ZM7940.96 3033.4C8004.42 3033.4 8036.16 2988.87 8036.16 2899.8C8036.16 2858.73 8029.76 2827 8016.96 2804.6C8004.69 2782.2 7986.56 2771 7962.56 2771C7924.16 2771 7886.29 2789.67 7848.96 2827V3020.6C7883.09 3029.13 7913.76 3033.4 7940.96 3033.4ZM8631.88 2934.2H8341.48C8345.74 2966.2 8357.48 2990.73 8376.68 3007.8C8396.41 3024.87 8422.54 3033.4 8455.08 3033.4C8479.08 3033.4 8504.94 3029.13 8532.68 3020.6C8560.94 3011.53 8587.08 2999.27 8611.08 2983.8H8614.27V3069.4C8592.94 3085.93 8568.41 3098.73 8540.68 3107.8C8513.48 3116.33 8484.68 3120.6 8454.28 3120.6C8410.54 3120.6 8372.41 3111.8 8339.88 3094.2C8307.34 3076.6 8282.28 3051.27 8264.68 3018.2C8247.08 2985.13 8238.28 2946.47 8238.28 2902.2C8238.28 2859 8246.54 2820.87 8263.08 2787.8C8280.14 2754.73 8303.88 2729.13 8334.28 2711C8364.68 2692.87 8399.88 2683.8 8439.88 2683.8C8478.81 2683.8 8512.68 2692.6 8541.48 2710.2C8570.81 2727.8 8593.21 2753.13 8608.68 2786.2C8624.14 2819.27 8631.88 2857.93 8631.88 2902.2V2934.2ZM8439.88 2768.6C8414.81 2768.6 8393.74 2776.87 8376.68 2793.4C8360.14 2809.93 8348.94 2832.87 8343.08 2862.2H8523.08C8518.81 2831.8 8509.74 2808.6 8495.88 2792.6C8482.01 2776.6 8463.34 2768.6 8439.88 2768.6ZM8965.16 2683.8V2787.8H8951.56C8909.96 2787.8 8876.1 2799.27 8849.96 2822.2V3111H8744.36V2786.2L8726.76 2693.4H8832.36L8842.76 2748.6C8860.36 2724.6 8876.36 2707.8 8890.76 2698.2C8905.16 2688.6 8921.16 2683.8 8938.76 2683.8H8965.16ZM9195.5 2693.4H9291.5V2771.8H9195.5V2973.4C9195.5 3013.93 9210.97 3034.2 9241.9 3034.2C9256.3 3034.2 9273.1 3029.13 9292.3 3019V3106.2C9278.97 3111 9266.43 3114.47 9254.7 3116.6C9243.5 3119.27 9230.7 3120.6 9216.3 3120.6C9132.03 3120.6 9089.9 3071.53 9089.9 2973.4V2771.8H9029.1V2693.4H9089.9V2581.4L9195.5 2544.6V2693.4ZM9771.81 2693.4L9532.61 3296.6H9432.61L9500.61 3124.6L9331.81 2693.4H9439.01L9555.01 2999L9666.21 2693.4H9771.81ZM10701.3 3111H10595.7V2687.8L10448.5 3111H10338.1L10187.7 2688.6V3111H10082.1V2554.2H10247.7L10394.9 2967L10538.1 2554.2H10701.3V3111ZM11110.5 3111L11100.1 3060.6C11062.2 3100.6 11016.6 3120.6 10963.3 3120.6C10921.1 3120.6 10886.7 3109.67 10860.1 3087.8C10833.9 3065.93 10820.9 3037.13 10820.9 3001.4C10820.9 2955 10837.9 2919 10872.1 2893.4C10906.7 2867.27 10956.6 2854.2 11021.7 2854.2C11045.1 2854.2 11068.6 2855.27 11092.1 2857.4V2842.2C11092.1 2818.73 11085.4 2801.4 11072.1 2790.2C11058.7 2778.47 11037.7 2772.6 11008.9 2772.6C10980.6 2772.6 10954.2 2777.4 10929.7 2787C10905.7 2796.07 10879.5 2811 10851.3 2831.8V2737.4C10875.8 2718.73 10901.4 2705.13 10928.1 2696.6C10954.7 2688.07 10984.1 2683.8 11016.1 2683.8C11075.3 2683.8 11120.3 2696.6 11151.3 2722.2C11182.7 2747.27 11198.5 2784.07 11198.5 2832.6V3018.2L11216.1 3111H11110.5ZM10926.5 2993.4C10926.5 3024.33 10944.1 3039.8 10979.3 3039.8C10999.5 3039.8 11018.7 3035.8 11036.9 3027.8C11055 3019.27 11073.4 3005.93 11092.1 2987.8V2931H11015.3C10984.3 2931 10961.7 2935.53 10947.3 2944.6C10933.4 2953.67 10926.5 2969.93 10926.5 2993.4ZM11548.1 2683.8C11590.3 2683.8 11624.1 2696.33 11649.7 2721.4C11675.9 2745.93 11688.9 2778.47 11688.9 2819V3111H11583.3V2879C11583.3 2842.73 11577.7 2816.87 11566.5 2801.4C11555.9 2785.4 11538 2777.4 11512.9 2777.4C11485.2 2777.4 11455.9 2792.87 11424.9 2823.8V3111H11319.3V2786.2L11301.7 2693.4H11398.5L11413.7 2747C11436.7 2724.6 11458.8 2708.6 11480.1 2699C11501.5 2688.87 11524.1 2683.8 11548.1 2683.8ZM12086.2 3111L12075.8 3060.6C12038 3100.6 11992.4 3120.6 11939 3120.6C11896.9 3120.6 11862.5 3109.67 11835.8 3087.8C11809.7 3065.93 11796.6 3037.13 11796.6 3001.4C11796.6 2955 11813.7 2919 11847.8 2893.4C11882.5 2867.27 11932.4 2854.2 11997.4 2854.2C12020.9 2854.2 12044.4 2855.27 12067.8 2857.4V2842.2C12067.8 2818.73 12061.2 2801.4 12047.8 2790.2C12034.5 2778.47 12013.4 2772.6 11984.6 2772.6C11956.4 2772.6 11930 2777.4 11905.4 2787C11881.4 2796.07 11855.3 2811 11827 2831.8V2737.4C11851.6 2718.73 11877.2 2705.13 11903.8 2696.6C11930.5 2688.07 11959.8 2683.8 11991.8 2683.8C12051 2683.8 12096.1 2696.6 12127 2722.2C12158.5 2747.27 12174.2 2784.07 12174.2 2832.6V3018.2L12191.8 3111H12086.2ZM11902.2 2993.4C11902.2 3024.33 11919.8 3039.8 11955 3039.8C11975.3 3039.8 11994.5 3035.8 12012.6 3027.8C12030.8 3019.27 12049.2 3005.93 12067.8 2987.8V2931H11991C11960.1 2931 11937.4 2935.53 11923 2944.6C11909.2 2953.67 11902.2 2969.93 11902.2 2993.4ZM12681.5 2693.4L12663.9 2785.4V3111C12663.9 3174.47 12645.2 3222.73 12607.9 3255.8C12570.6 3289.4 12519.6 3306.2 12455.1 3306.2C12421 3306.2 12390.3 3301.67 12363.1 3292.6C12335.9 3283.53 12309.8 3271.27 12284.7 3255.8V3156.6C12334.8 3195 12388.7 3214.2 12446.3 3214.2C12521 3214.2 12558.3 3179.8 12558.3 3111V3078.2C12525.2 3096.33 12489 3105.4 12449.5 3105.4C12393.5 3105.4 12349.2 3087 12316.7 3050.2C12284.7 3012.87 12268.7 2961.67 12268.7 2896.6C12268.7 2830.47 12285.5 2778.47 12319.1 2740.6C12353.2 2702.73 12399.4 2683.8 12457.5 2683.8C12476.2 2683.8 12494 2685.93 12511.1 2690.2C12528.2 2693.93 12548.4 2700.6 12571.9 2710.2L12575.9 2693.4H12681.5ZM12453.5 3014.2C12487.1 3014.2 12522 3003.53 12558.3 2982.2V2782.2C12544.4 2777.93 12530.6 2775.27 12516.7 2774.2C12503.4 2773.13 12487.1 2772.6 12467.9 2772.6C12437 2772.6 12414.6 2782.47 12400.7 2802.2C12386.8 2821.93 12379.9 2853.4 12379.9 2896.6C12379.9 2937.67 12385.8 2967.53 12397.5 2986.2C12409.2 3004.87 12427.9 3014.2 12453.5 3014.2ZM13160 2934.2H12869.6C12873.9 2966.2 12885.6 2990.73 12904.8 3007.8C12924.5 3024.87 12950.7 3033.4 12983.2 3033.4C13007.2 3033.4 13033.1 3029.13 13060.8 3020.6C13089.1 3011.53 13115.2 2999.27 13139.2 2983.8H13142.4V3069.4C13121.1 3085.93 13096.5 3098.73 13068.8 3107.8C13041.6 3116.33 13012.8 3120.6 12982.4 3120.6C12938.7 3120.6 12900.5 3111.8 12868 3094.2C12835.5 3076.6 12810.4 3051.27 12792.8 3018.2C12775.2 2985.13 12766.4 2946.47 12766.4 2902.2C12766.4 2859 12774.7 2820.87 12791.2 2787.8C12808.3 2754.73 12832 2729.13 12862.4 2711C12892.8 2692.87 12928 2683.8 12968 2683.8C13006.9 2683.8 13040.8 2692.6 13069.6 2710.2C13098.9 2727.8 13121.3 2753.13 13136.8 2786.2C13152.3 2819.27 13160 2857.93 13160 2902.2V2934.2ZM12968 2768.6C12942.9 2768.6 12921.9 2776.87 12904.8 2793.4C12888.3 2809.93 12877.1 2832.87 12871.2 2862.2H13051.2C13046.9 2831.8 13037.9 2808.6 13024 2792.6C13010.1 2776.6 12991.5 2768.6 12968 2768.6ZM13747.7 2683.8C13787.7 2683.8 13819.7 2696.33 13843.7 2721.4C13868.2 2745.93 13880.5 2778.47 13880.5 2819V3111H13774.9V2879C13774.9 2842.73 13770.1 2816.87 13760.5 2801.4C13750.9 2785.4 13734.9 2777.4 13712.5 2777.4C13685.3 2777.4 13657.3 2792.6 13628.5 2823V3111H13522.9V2879C13522.9 2842.73 13518.1 2816.87 13508.5 2801.4C13498.9 2785.4 13482.9 2777.4 13460.5 2777.4C13433.3 2777.4 13405.3 2792.6 13376.5 2823V3111H13270.9V2786.2L13253.3 2693.4H13350.1L13365.3 2747C13386.6 2724.6 13407.7 2708.6 13428.5 2699C13449.3 2688.87 13471.7 2683.8 13495.7 2683.8C13522.4 2683.8 13545.8 2689.93 13566.1 2702.2C13586.9 2713.93 13602.6 2730.2 13613.3 2751C13635.7 2727 13657.3 2709.93 13678.1 2699.8C13699.4 2689.13 13722.6 2683.8 13747.7 2683.8ZM14392 2934.2H14101.6C14105.9 2966.2 14117.6 2990.73 14136.8 3007.8C14156.6 3024.87 14182.7 3033.4 14215.2 3033.4C14239.2 3033.4 14265.1 3029.13 14292.8 3020.6C14321.1 3011.53 14347.2 2999.27 14371.2 2983.8H14374.4V3069.4C14353.1 3085.93 14328.6 3098.73 14300.8 3107.8C14273.6 3116.33 14244.8 3120.6 14214.4 3120.6C14170.7 3120.6 14132.6 3111.8 14100 3094.2C14067.5 3076.6 14042.4 3051.27 14024.8 3018.2C14007.2 2985.13 13998.4 2946.47 13998.4 2902.2C13998.4 2859 14006.7 2820.87 14023.2 2787.8C14040.3 2754.73 14064 2729.13 14094.4 2711C14124.8 2692.87 14160 2683.8 14200 2683.8C14239 2683.8 14272.8 2692.6 14301.6 2710.2C14331 2727.8 14353.4 2753.13 14368.8 2786.2C14384.3 2819.27 14392 2857.93 14392 2902.2V2934.2ZM14200 2768.6C14175 2768.6 14153.9 2776.87 14136.8 2793.4C14120.3 2809.93 14109.1 2832.87 14103.2 2862.2H14283.2C14279 2831.8 14269.9 2808.6 14256 2792.6C14242.2 2776.6 14223.5 2768.6 14200 2768.6ZM14731.7 2683.8C14773.9 2683.8 14807.7 2696.33 14833.3 2721.4C14859.5 2745.93 14872.5 2778.47 14872.5 2819V3111H14766.9V2879C14766.9 2842.73 14761.3 2816.87 14750.1 2801.4C14739.5 2785.4 14721.6 2777.4 14696.5 2777.4C14668.8 2777.4 14639.5 2792.87 14608.5 2823.8V3111H14502.9V2786.2L14485.3 2693.4H14582.1L14597.3 2747C14620.3 2724.6 14642.4 2708.6 14663.7 2699C14685.1 2688.87 14707.7 2683.8 14731.7 2683.8ZM15131.4 2693.4H15227.4V2771.8H15131.4V2973.4C15131.4 3013.93 15146.9 3034.2 15177.8 3034.2C15192.2 3034.2 15209 3029.13 15228.2 3019V3106.2C15214.9 3111 15202.4 3114.47 15190.6 3116.6C15179.4 3119.27 15166.6 3120.6 15152.2 3120.6C15068 3120.6 15025.8 3071.53 15025.8 2973.4V2771.8H14965V2693.4H15025.8V2581.4L15131.4 2544.6V2693.4Z" fill="#083625"/>
<line x1="4844.59" y1="0.000949293" x2="4844.52" y2="3437" stroke="#083625" stroke-width="100"/>
</svg>
